<svg width="615.6px" height="122px" xmlns="http://www.w3.org/2000/svg" viewBox="-57.797515869140625 13.989306640625003 615.5950317382812 122.02138671875" style="background: #e00" preserveAspectRatio="xMidYMid"><defs><filter id="editing-lego" x="-100%" y="-100%" width="300%" height="300%"><feFlood flood-color="#000" result="f1"></feFlood><feFlood flood-color="#ffff00" result="f2"></feFlood><feMorphology operator="dilate" radius="3" in="SourceAlpha"></feMorphology><feConvolveMatrix order="5,5" divisor="1" result="cm1" kernelMatrix="0 1 1 1 0  1 0 0 0 1  1 0 0 0 1  1 0 0 0 1  0 1 1 1 0"></feConvolveMatrix><feComposite operator="in" in="f1" in2="cm1" result="c1"></feComposite><feMorphology operator="dilate" radius="3"></feMorphology><feConvolveMatrix order="5,5" divisor="1" result="cm2" kernelMatrix="0 1 1 1 0  1 0 0 0 1  1 0 0 0 1  1 0 0 0 1  0 1 1 1 0"></feConvolveMatrix><feComposite operator="in" in="f2" in2="cm2" result="c2"></feComposite><feMerge><feMergeNode in="c2"></feMergeNode><feMergeNode in="c1"></feMergeNode><feMergeNode in="SourceGraphic"></feMergeNode></feMerge></filter></defs><g filter="url(#editing-lego)"><g transform="matrix(1.2,0,0,1.4,4.5,159.9)"><path d="M -7 -42.3 L -20.9 -42.3 L -12.8 -84.5 L 1.3 -84.5 L -7 -42.3 Z M 48.8 -41 L 48.8 -41 L 48.8 -41 Q 41 -41 41 -47 L 41 -47 L 41 -47 Q 41 -49.7 42.2 -54.8 L 42.2 -54.8 L 42.2 -54.8 Q 43.3 -59.8 43.7 -61.9 L 43.7 -61.9 L 43.7 -61.9 Q 44.6 -66.6 44.6 -68 L 44.6 -68 L 44.6 -68 Q 44.6 -71.3 42.1 -71.3 L 42.1 -71.3 L 42.1 -71.3 Q 40.5 -71.3 39 -69.1 L 39 -69.1 L 39 -69.1 Q 37.4 -66.9 36.7 -62.5 L 36.7 -62.5 L 32.8 -42.3 L 20.3 -41 L 23.8 -58.4 L 23.8 -58.4 Q 24.3 -61.3 24.8 -64.6 L 24.8 -64.6 L 24.8 -64.6 Q 25.4 -67.8 25.4 -68.4 L 25.4 -68.4 L 25.4 -68.4 Q 25.4 -71.3 23.2 -71.3 L 23.2 -71.3 L 23.2 -71.3 Q 21.7 -71.3 20.1 -69.1 L 20.1 -69.1 L 20.1 -69.1 Q 18.5 -66.9 17.6 -62.5 L 17.6 -62.5 L 13.7 -42.3 L 1.1 -41 L 7.8 -74.9 L 18.2 -76.2 L 17.2 -69.8 L 17.2 -69.8 Q 18.8 -73.2 21.9 -74.7 L 21.9 -74.7 L 21.9 -74.7 Q 25 -76.2 29.8 -76.2 L 29.8 -76.2 L 29.8 -76.2 Q 32.5 -76.2 34.3 -74.9 L 34.3 -74.9 L 34.3 -74.9 Q 36.1 -73.5 36.7 -71.4 L 36.7 -71.4 L 36.7 -71.4 Q 37.8 -73.6 40.6 -74.9 L 40.6 -74.9 L 40.6 -74.9 Q 43.3 -76.2 46.8 -76.2 L 46.8 -76.2 L 46.8 -76.2 Q 50.2 -76.2 51.9 -75.5 L 51.9 -75.5 L 51.9 -75.5 Q 53.6 -74.8 54.6 -73.5 L 54.6 -73.5 L 54.6 -73.5 Q 56.3 -71.3 56.3 -67.2 L 56.3 -67.2 L 56.3 -67.2 Q 56.3 -63.2 54.6 -54.8 L 54.6 -54.8 L 54.6 -54.8 Q 53.7 -50.7 53.7 -49.2 L 53.7 -49.2 L 53.7 -49.2 Q 53.7 -47.7 54.6 -46.8 L 54.6 -46.8 L 54.6 -46.8 Q 55.4 -45.9 56.7 -45.8 L 56.7 -45.8 L 56.7 -45.8 Q 56.1 -43.6 53.9 -42.3 L 53.9 -42.3 L 53.9 -42.3 Q 51.7 -41 48.8 -41 Z M 64.4 -44.2 L 64.4 -44.2 L 64.4 -44.2 Q 62.9 -45.9 62.2 -48.5 L 62.2 -48.5 L 62.2 -48.5 Q 61.6 -51.1 61.6 -55.4 L 61.6 -55.4 L 61.6 -55.4 Q 61.6 -59.7 63 -63.6 L 63 -63.6 L 63 -63.6 Q 64.5 -67.5 67.2 -70.3 L 67.2 -70.3 L 67.2 -70.3 Q 72.7 -76.2 81.8 -76.2 L 81.8 -76.2 L 81.8 -76.2 Q 85.1 -76.2 87.4 -75.1 L 87.4 -75.1 L 98.4 -76.2 L 93.6 -51.3 L 93.6 -51.3 Q 93.4 -50.5 93.4 -49.1 L 93.4 -49.1 L 93.4 -49.1 Q 93.4 -47.7 94.3 -46.8 L 94.3 -46.8 L 94.3 -46.8 Q 95.2 -45.9 96.5 -45.8 L 96.5 -45.8 L 96.5 -45.8 Q 95.8 -43.6 93.5 -42.3 L 93.5 -42.3 L 93.5 -42.3 Q 91.1 -41 88.5 -41 L 88.5 -41 L 88.5 -41 Q 85.9 -41 84.1 -42 L 84.1 -42 L 84.1 -42 Q 82.4 -43 81.9 -44.7 L 81.9 -44.7 L 81.9 -44.7 Q 80.8 -43.1 78.7 -42 L 78.7 -42 L 78.7 -42 Q 76.5 -41 73.6 -41 L 73.6 -41 L 73.6 -41 Q 70.7 -41 68.3 -41.8 L 68.3 -41.8 L 68.3 -41.8 Q 65.9 -42.6 64.4 -44.2 Z M 77.9 -70.2 L 77.9 -70.2 L 77.9 -70.2 Q 77.2 -69.1 76.6 -67.1 L 76.6 -67.1 L 76.6 -67.1 Q 75.9 -65.2 74.9 -59.9 L 74.9 -59.9 L 74.9 -59.9 Q 73.8 -54.7 73.8 -51 L 73.8 -51 L 73.8 -51 Q 73.8 -47.3 74.4 -46.2 L 74.4 -46.2 L 74.4 -46.2 Q 75 -45.1 76 -45.1 L 76 -45.1 L 76 -45.1 Q 78 -45.1 79.5 -47.1 L 79.5 -47.1 L 79.5 -47.1 Q 81 -49 81.6 -52.5 L 81.6 -52.5 L 85 -71.2 L 85 -71.2 Q 83.7 -72.4 82.1 -72.4 L 82.1 -72.4 L 82.1 -72.4 Q 80.5 -72.4 79.6 -71.9 L 79.6 -71.9 L 79.6 -71.9 Q 78.7 -71.4 77.9 -70.2 Z M 106.1 -69.1 L 106.1 -69.1 L 106.1 -69.1 Q 108.3 -72.1 111.6 -74.2 L 111.6 -74.2 L 111.6 -74.2 Q 114.9 -76.2 118.9 -76.2 L 118.9 -76.2 L 118.9 -76.2 Q 123 -76.2 124.9 -74.9 L 124.9 -74.9 L 137.4 -76.2 L 133.1 -51.6 L 133.1 -51.6 Q 130.8 -39.1 126.1 -34.2 L 126.1 -34.2 L 126.1 -34.2 Q 121.5 -29.5 112.7 -29.5 L 112.7 -29.5 L 112.7 -29.5 Q 106 -29.5 102.2 -31.6 L 102.2 -31.6 L 102.2 -31.6 Q 98.3 -33.7 98.3 -37.2 L 98.3 -37.2 L 98.3 -37.2 Q 98.3 -39.9 100.3 -41.4 L 100.3 -41.4 L 100.3 -41.4 Q 102.3 -42.9 105.4 -42.9 L 105.4 -42.9 L 105.4 -42.9 Q 108 -42.9 110.1 -41.7 L 110.1 -41.7 L 110.1 -41.7 Q 111.3 -41 111.9 -40.1 L 111.9 -40.1 L 111.9 -40.1 Q 110.4 -38.8 110.4 -36.7 L 110.4 -36.7 L 110.4 -36.7 Q 110.4 -34 113 -34 L 113 -34 L 113 -34 Q 117.3 -34 119.7 -44.1 L 119.7 -44.1 L 119.7 -44.1 Q 120.4 -46.8 121 -49.6 L 121 -49.6 L 121 -49.6 Q 118.1 -46.1 111.6 -46.1 L 111.6 -46.1 L 111.6 -46.1 Q 107 -46.1 104.4 -48.3 L 104.4 -48.3 L 104.4 -48.3 Q 101.8 -50.4 101.8 -55.6 L 101.8 -55.6 L 101.8 -55.6 Q 101.8 -58.8 102.9 -62.4 L 102.9 -62.4 L 102.9 -62.4 Q 103.9 -66 106.1 -69.1 Z M 114.4 -55.4 L 114.4 -55.4 L 114.4 -55.4 Q 114.4 -51 116.7 -51 L 116.7 -51 L 116.7 -51 Q 118.2 -51 119.7 -52.7 L 119.7 -52.7 L 119.7 -52.7 Q 120.8 -54 121.3 -56 L 121.3 -56 L 124.6 -72.4 L 124.6 -72.4 Q 124.2 -72.5 123.9 -72.6 L 123.9 -72.6 L 123.9 -72.6 Q 123.3 -72.9 122.4 -72.9 L 122.4 -72.9 L 122.4 -72.9 Q 118.5 -72.9 116.2 -66.5 L 116.2 -66.5 L 116.2 -66.5 Q 114.4 -61.5 114.4 -55.4 Z M 165.8 -53.1 L 165.8 -53.1 L 165.8 -53.1 Q 167.4 -52 167.4 -49.6 L 167.4 -49.6 L 167.4 -49.6 Q 167.4 -47.2 166.2 -45.7 L 166.2 -45.7 L 166.2 -45.7 Q 165 -44.2 163 -43.1 L 163 -43.1 L 163 -43.1 Q 158.9 -41 154.5 -41 L 154.5 -41 L 154.5 -41 Q 150.1 -41 147.5 -42 L 147.5 -42 L 147.5 -42 Q 144.9 -42.9 143.2 -44.7 L 143.2 -44.7 L 143.2 -44.7 Q 139.8 -48.1 139.8 -54.3 L 139.8 -54.3 L 139.8 -54.3 Q 139.8 -64 145 -69.9 L 145 -69.9 L 145 -69.9 Q 150.7 -76.2 160.5 -76.2 L 160.5 -76.2 L 160.5 -76.2 Q 166.5 -76.2 169.5 -73.7 L 169.5 -73.7 L 169.5 -73.7 Q 171.8 -71.7 171.8 -68.6 L 171.8 -68.6 L 171.8 -68.6 Q 171.8 -57.3 152.3 -57.3 L 152.3 -57.3 L 152.3 -57.3 Q 152.1 -55.7 152.1 -54.3 L 152.1 -54.3 L 152.1 -54.3 Q 152.1 -51.3 153.4 -50.2 L 153.4 -50.2 L 153.4 -50.2 Q 154.7 -49.1 157.1 -49.1 L 157.1 -49.1 L 157.1 -49.1 Q 159.6 -49.1 162.2 -50.2 L 162.2 -50.2 L 162.2 -50.2 Q 164.7 -51.3 165.8 -53.1 Z M 152.8 -60.1 L 152.8 -60.1 L 152.8 -60.1 Q 157.3 -60.1 159.9 -62.9 L 159.9 -62.9 L 159.9 -62.9 Q 162.6 -65.6 162.6 -69.9 L 162.6 -69.9 L 162.6 -69.9 Q 162.6 -71.4 162 -72.2 L 162 -72.2 L 162 -72.2 Q 161.5 -73 160.4 -73 L 160.4 -73 L 160.4 -73 Q 159.3 -73 158.4 -72.5 L 158.4 -72.5 L 158.4 -72.5 Q 157.4 -72.1 156.5 -70.7 L 156.5 -70.7 L 156.5 -70.7 Q 154.1 -67.5 152.8 -60.1 Z M 213.1 -62.9 L 226 -64.1 L 226 -64.1 Q 221.4 -54 221.4 -42.2 L 221.4 -42.2 L 221.4 -42.2 Q 219.7 -41 217.1 -41 L 217.1 -41 L 217.1 -41 Q 214.6 -41 213 -42.2 L 213 -42.2 L 213 -42.2 Q 211.4 -43.4 211.1 -44.6 L 211.1 -44.6 L 211.1 -44.6 Q 209.5 -42.9 206.9 -42 L 206.9 -42 L 206.9 -42 Q 204.3 -41 201.5 -41 L 201.5 -41 L 201.5 -41 Q 198.8 -41 196.4 -41.9 L 196.4 -41.9 L 196.4 -41.9 Q 194 -42.8 192.1 -44.8 L 192.1 -44.8 L 192.1 -44.8 Q 188 -49.2 188 -57.4 L 188 -57.4 L 188 -57.4 Q 188 -70.2 194.9 -77.9 L 194.9 -77.9 L 194.9 -77.9 Q 201.9 -85.8 214.4 -85.8 L 214.4 -85.8 L 214.4 -85.8 Q 223 -85.8 226.1 -81.3 L 226.1 -81.3 L 226.1 -81.3 Q 227.1 -79.9 227.1 -78.2 L 227.1 -78.2 L 227.1 -78.2 Q 227.1 -76.5 226.3 -75.1 L 226.3 -75.1 L 226.3 -75.1 Q 225.6 -73.7 224.5 -72.5 L 224.5 -72.5 L 224.5 -72.5 Q 221.7 -70 218.3 -70 L 218.3 -70 L 218.3 -70 Q 217 -70 215.7 -70.4 L 215.7 -70.4 L 215.7 -70.4 Q 215.9 -72.3 215.9 -74.6 L 215.9 -74.6 L 215.9 -74.6 Q 215.9 -76.8 215.8 -77.8 L 215.8 -77.8 L 215.8 -77.8 Q 215.6 -78.8 215.2 -79.7 L 215.2 -79.7 L 215.2 -79.7 Q 214.4 -81.4 212.6 -81.4 L 212.6 -81.4 L 212.6 -81.4 Q 210.8 -81.4 208.7 -79.5 L 208.7 -79.5 L 208.7 -79.5 Q 206.7 -77.5 205.1 -74.3 L 205.1 -74.3 L 205.1 -74.3 Q 201.6 -67.1 201.6 -58.5 L 201.6 -58.5 L 201.6 -58.5 Q 201.6 -54.5 203.1 -51.7 L 203.1 -51.7 L 203.1 -51.7 Q 204.8 -48.6 207.8 -48.6 L 207.8 -48.6 L 207.8 -48.6 Q 208.8 -48.6 209.7 -49.2 L 209.7 -49.2 L 209.7 -49.2 Q 210.6 -49.7 211 -50 L 211 -50 L 213.1 -62.9 Z M 231.9 -44.2 L 231.9 -44.2 L 231.9 -44.2 Q 230.4 -45.9 229.7 -48.5 L 229.7 -48.5 L 229.7 -48.5 Q 229.1 -51.1 229.1 -55.4 L 229.1 -55.4 L 229.1 -55.4 Q 229.1 -59.7 230.5 -63.6 L 230.5 -63.6 L 230.5 -63.6 Q 232 -67.5 234.7 -70.3 L 234.7 -70.3 L 234.7 -70.3 Q 240.2 -76.2 249.3 -76.2 L 249.3 -76.2 L 249.3 -76.2 Q 252.6 -76.2 254.9 -75.1 L 254.9 -75.1 L 265.9 -76.2 L 261.1 -51.3 L 261.1 -51.3 Q 260.9 -50.5 260.9 -49.1 L 260.9 -49.1 L 260.9 -49.1 Q 260.9 -47.7 261.8 -46.8 L 261.8 -46.8 L 261.8 -46.8 Q 262.7 -45.9 263.9 -45.8 L 263.9 -45.8 L 263.9 -45.8 Q 263.3 -43.6 261 -42.3 L 261 -42.3 L 261 -42.3 Q 258.6 -41 256 -41 L 256 -41 L 256 -41 Q 253.4 -41 251.6 -42 L 251.6 -42 L 251.6 -42 Q 249.9 -43 249.4 -44.7 L 249.4 -44.7 L 249.4 -44.7 Q 248.3 -43.1 246.2 -42 L 246.2 -42 L 246.2 -42 Q 244 -41 241.1 -41 L 241.1 -41 L 241.1 -41 Q 238.2 -41 235.8 -41.8 L 235.8 -41.8 L 235.8 -41.8 Q 233.4 -42.6 231.9 -44.2 Z M 245.4 -70.2 L 245.4 -70.2 L 245.4 -70.2 Q 244.7 -69.1 244 -67.1 L 244 -67.1 L 244 -67.1 Q 243.4 -65.2 242.3 -59.9 L 242.3 -59.9 L 242.3 -59.9 Q 241.3 -54.7 241.3 -51 L 241.3 -51 L 241.3 -51 Q 241.3 -47.3 241.9 -46.2 L 241.9 -46.2 L 241.9 -46.2 Q 242.4 -45.1 243.5 -45.1 L 243.5 -45.1 L 243.5 -45.1 Q 245.5 -45.1 247 -47.1 L 247 -47.1 L 247 -47.1 Q 248.5 -49 249.1 -52.5 L 249.1 -52.5 L 252.5 -71.2 L 252.5 -71.2 Q 251.1 -72.4 249.6 -72.4 L 249.6 -72.4 L 249.6 -72.4 Q 248 -72.4 247.1 -71.9 L 247.1 -71.9 L 247.1 -71.9 Q 246.2 -71.4 245.4 -70.2 Z M 284.6 -45.8 L 284.6 -45.8 L 284.6 -45.8 Q 282.6 -41 276.3 -41 L 276.3 -41 L 276.3 -41 Q 273.1 -41 271 -43.3 L 271 -43.3 L 271 -43.3 Q 269.4 -45.1 269.4 -47.2 L 269.4 -47.2 L 269.4 -47.2 Q 269.4 -52 271.6 -62.5 L 271.6 -62.5 L 276.3 -87.1 L 289.3 -88.4 L 283.1 -56 L 283.1 -56 Q 282 -51.3 282 -49.6 L 282 -49.6 L 282 -49.6 Q 282 -46 284.6 -45.8 Z M 305.4 -45.8 L 305.4 -45.8 L 305.4 -45.8 Q 303.4 -41 297 -41 L 297 -41 L 297 -41 Q 293.8 -41 291.8 -43.3 L 291.8 -43.3 L 291.8 -43.3 Q 290.1 -45.1 290.1 -47.2 L 290.1 -47.2 L 290.1 -47.2 Q 290.1 -52 292.4 -62.5 L 292.4 -62.5 L 297 -87.1 L 310 -88.4 L 303.8 -56 L 303.8 -56 Q 302.7 -51.3 302.7 -49.6 L 302.7 -49.6 L 302.7 -49.6 Q 302.7 -46 305.4 -45.8 Z M 336.7 -53.1 L 336.7 -53.1 L 336.7 -53.1 Q 338.3 -52 338.3 -49.6 L 338.3 -49.6 L 338.3 -49.6 Q 338.3 -47.2 337.1 -45.7 L 337.1 -45.7 L 337.1 -45.7 Q 335.9 -44.2 333.9 -43.1 L 333.9 -43.1 L 333.9 -43.1 Q 329.8 -41 325.4 -41 L 325.4 -41 L 325.4 -41 Q 321 -41 318.4 -42 L 318.4 -42 L 318.4 -42 Q 315.8 -42.9 314.1 -44.7 L 314.1 -44.7 L 314.1 -44.7 Q 310.7 -48.1 310.7 -54.3 L 310.7 -54.3 L 310.7 -54.3 Q 310.7 -64 315.9 -69.9 L 315.9 -69.9 L 315.9 -69.9 Q 321.5 -76.2 331.3 -76.2 L 331.3 -76.2 L 331.3 -76.2 Q 337.4 -76.2 340.4 -73.7 L 340.4 -73.7 L 340.4 -73.7 Q 342.7 -71.7 342.7 -68.6 L 342.7 -68.6 L 342.7 -68.6 Q 342.7 -57.3 323.2 -57.3 L 323.2 -57.3 L 323.2 -57.3 Q 323 -55.7 323 -54.3 L 323 -54.3 L 323 -54.3 Q 323 -51.3 324.3 -50.2 L 324.3 -50.2 L 324.3 -50.2 Q 325.6 -49.1 328 -49.1 L 328 -49.1 L 328 -49.1 Q 330.4 -49.1 333 -50.2 L 333 -50.2 L 333 -50.2 Q 335.6 -51.3 336.7 -53.1 Z M 323.7 -60.1 L 323.7 -60.1 L 323.7 -60.1 Q 328.2 -60.1 330.8 -62.9 L 330.8 -62.9 L 330.8 -62.9 Q 333.4 -65.6 333.4 -69.9 L 333.4 -69.9 L 333.4 -69.9 Q 333.4 -71.4 332.9 -72.2 L 332.9 -72.2 L 332.9 -72.2 Q 332.4 -73 331.3 -73 L 331.3 -73 L 331.3 -73 Q 330.2 -73 329.3 -72.5 L 329.3 -72.5 L 329.3 -72.5 Q 328.3 -72.1 327.4 -70.7 L 327.4 -70.7 L 327.4 -70.7 Q 325 -67.5 323.7 -60.1 Z M 364.9 -60.3 L 364.9 -60.3 L 364.9 -60.3 Q 367.2 -64.4 367.2 -68.5 L 367.2 -68.5 L 367.2 -68.5 Q 367.2 -71.3 365.2 -71.3 L 365.2 -71.3 L 365.2 -71.3 Q 363.7 -71.3 362.1 -68.7 L 362.1 -68.7 L 362.1 -68.7 Q 360.4 -66 359.9 -62.7 L 359.9 -62.7 L 356.6 -42.3 L 343.3 -41 L 349.8 -74.9 L 360.4 -76.2 L 359.2 -69.8 L 359.2 -69.8 Q 362.4 -76.2 369.4 -76.2 L 369.4 -76.2 L 369.4 -76.2 Q 373.1 -76.2 375.1 -74.3 L 375.1 -74.3 L 375.1 -74.3 Q 377.2 -72.4 377.2 -68.4 L 377.2 -68.4 L 377.2 -68.4 Q 377.2 -64.5 374.6 -62 L 374.6 -62 L 374.6 -62 Q 372 -59.5 367.6 -59.5 L 367.6 -59.5 L 367.6 -59.5 Q 365.6 -59.5 364.9 -60.3 Z M 398.5 -49.5 L 398.5 -49.5 L 398.5 -49.5 Q 395.2 -46.1 389.1 -46.1 L 389.1 -46.1 L 389.1 -46.1 Q 381.5 -46.1 379.9 -51.6 L 379.9 -51.6 L 379.9 -51.6 Q 379.4 -53.3 379.4 -55.2 L 379.4 -55.2 L 379.4 -55.2 Q 379.4 -57 379.8 -58.9 L 379.8 -58.9 L 382.8 -74.9 L 395.8 -76.2 L 392.3 -57.6 L 392.3 -57.6 Q 392.1 -56.8 391.9 -55.9 L 391.9 -55.9 L 391.9 -55.9 Q 391.8 -55 391.8 -54 L 391.8 -54 L 391.8 -54 Q 391.8 -53.1 392.1 -52.5 L 392.1 -52.5 L 392.1 -52.5 Q 392.4 -51.9 392.8 -51.5 L 392.8 -51.5 L 392.8 -51.5 Q 393.6 -51 395 -51 L 395 -51 L 395 -51 Q 396.4 -51 397.5 -52.7 L 397.5 -52.7 L 397.5 -52.7 Q 398.7 -54.3 399.3 -57.2 L 399.3 -57.2 L 402.8 -74.9 L 415.4 -76.2 L 410.6 -51.1 L 410.6 -51.1 Q 408.3 -38.8 403.4 -33.9 L 403.4 -33.9 L 403.4 -33.9 Q 400.9 -31.4 397.7 -30.4 L 397.7 -30.4 L 397.7 -30.4 Q 394.4 -29.4 390.3 -29.4 L 390.3 -29.4 L 390.3 -29.4 Q 383.6 -29.4 379.7 -31.6 L 379.7 -31.6 L 379.7 -31.6 Q 375.9 -33.7 375.9 -37.2 L 375.9 -37.2 L 375.9 -37.2 Q 375.9 -39.8 377.9 -41.3 L 377.9 -41.3 L 377.9 -41.3 Q 379.8 -42.8 382.9 -42.8 L 382.9 -42.8 L 382.9 -42.8 Q 385.6 -42.8 387.7 -41.7 L 387.7 -41.7 L 387.7 -41.7 Q 388.9 -41 389.4 -40.1 L 389.4 -40.1 L 389.4 -40.1 Q 388 -38.8 388 -36.7 L 388 -36.7 L 388 -36.7 Q 388 -33.9 390.5 -33.9 L 390.5 -33.9 L 390.5 -33.9 Q 394.8 -33.9 397.2 -43.6 L 397.2 -43.6 L 397.2 -43.6 Q 397.9 -46.5 398.5 -49.5 Z" fill="#ffffff"></path></g></g><style>text {
  font-size: 64px;
  font-family: Arial Black;
  dominant-baseline: central;
  text-anchor: middle;
}</style></svg>